<?xml version="1.0" encoding="UTF-8"?>
<svg id="_イヤー_1" data-name="レイヤー 1" xmlns="http://www.w3.org/2000/svg" width="256" height="256" viewBox="0 0 256 256">
  <defs>
    <style>
      .cls-1 {
        fill: #1f246b;
      }

      .cls-2 {
        fill: #4ea3e5;
      }
    </style>
  </defs>
  <rect class="cls-1" x="48.07" y="226.67" width="16.9" height="16.9" rx="4.07" ry="4.07" transform="translate(-179.07 289.64) rotate(-89.52)"/>
  <path class="cls-1" d="M184,243.63l-108.06-.14c-1.58,0-2.86-1.29-2.85-2.87l.09-11.2c.01-1.57,1.29-2.83,2.85-2.82l108.06,.14c1.58,0,2.86,1.29,2.85,2.87l-.09,11.2c-.01,1.57-1.29,2.83-2.85,2.82Z"/>
  <polygon class="cls-1" points="202.95 223.04 205.49 231.11 213.95 231.18 207.06 236.1 209.61 244.17 202.81 239.14 195.92 244.05 198.6 236.03 191.8 231 200.26 231.07 202.95 223.04"/>
  <rect class="cls-2" x="48.07" y="145.14" width="16.9" height="16.9" rx="4.07" ry="4.07" transform="translate(-97.55 208.81) rotate(-89.52)"/>
  <path class="cls-2" d="M184,162.11l-108.06-.14c-1.58,0-2.86-1.29-2.85-2.87l.09-11.2c.01-1.57,1.29-2.83,2.85-2.82l108.06,.14c1.58,0,2.86,1.29,2.85,2.87l-.09,11.2c-.01,1.57-1.29,2.83-2.85,2.82Z"/>
  <polygon class="cls-2" points="202.95 141.52 205.49 149.59 213.95 149.66 207.06 154.58 209.61 162.64 202.81 157.61 195.92 162.53 198.6 154.51 191.8 149.47 200.26 149.55 202.95 141.52"/>
  <rect class="cls-2" x="48.27" y="102.23" width="16.9" height="16.9" rx="4.07" ry="4.07" transform="translate(-58.12 158.42) rotate(-85.44)"/>
  <path class="cls-2" d="M183.27,128.23l-107.78-7.81c-1.58-.11-2.76-1.49-2.63-3.07l.89-11.17c.12-1.56,1.48-2.73,3.05-2.61l107.78,7.81c1.58,.11,2.76,1.49,2.63,3.07l-.89,11.17c-.12,1.56-1.48,2.73-3.05,2.61Z"/>
  <polygon class="cls-2" points="203.63 109.04 205.6 117.27 214.03 117.94 206.81 122.36 208.78 130.58 202.35 125.08 195.13 129.5 198.38 121.68 191.95 116.18 200.39 116.85 203.63 109.04"/>
  <rect class="cls-1" x="49.11" y="192.94" width="16.9" height="16.9" rx="4.07" ry="4.07" transform="translate(-16.76 5.56) rotate(-4.83)"/>
  <path class="cls-1" d="M185.28,198.06l-107.61,9.88c-1.57,.14-2.97-1.02-3.1-2.6l-.94-11.16c-.13-1.56,1.02-2.93,2.58-3.08l107.61-9.88c1.57-.14,2.97,1.02,3.1,2.6l.94,11.16c.13,1.56-1.02,2.93-2.58,3.08Z"/>
  <polygon class="cls-1" points="202.24 175.8 205.52 183.6 213.95 182.89 207.55 188.42 210.83 196.22 203.59 191.84 197.19 197.37 199.12 189.13 191.88 184.75 200.31 184.04 202.24 175.8"/>
  <rect class="cls-1" x="49.04" y="12.4" width="16.9" height="16.9" rx="4.07" ry="4.07" transform="translate(14.76 64.59) rotate(-65.61)"/>
  <path class="cls-1" d="M170.58,80.3L71.85,36.38c-1.44-.64-2.09-2.34-1.44-3.78l4.63-10.2c.65-1.43,2.32-2.06,3.75-1.43l98.73,43.92c1.44,.64,2.09,2.34,1.44,3.78l-4.63,10.2c-.65,1.43-2.32,2.06-3.75,1.43Z"/>
  <polygon class="cls-1" points="196.24 69.16 195.3 77.57 203 81.06 194.71 82.76 193.77 91.17 189.59 83.81 181.3 85.52 187.01 79.27 182.83 71.91 190.54 75.41 196.24 69.16"/>
</svg>